<svg width="147" height="49" viewBox="0 0 147 49" fill="none" xmlns="http://www.w3.org/2000/svg">
<path d="M0.95 23H6.2C14.9 23 21.86 15.65 21.86 9.95C21.86 6.08 18.74 2 11.99 2H7.04L6.92 2.45L9.29 2.84L3.5 22.01L1.04 22.55L0.95 23ZM6.41 21.89L12.11 3.05C16.94 3.05 18.77 6.98 18.77 10.01C18.77 14.72 14.12 21.89 6.41 21.89ZM27.4677 3.74L29.0277 5.54C30.0177 4.7 30.8877 3.74 31.5777 2.72L29.8077 0.829999C29.0577 2 28.2777 2.93 27.4677 3.74ZM22.9977 22.43C23.1177 22.91 24.1077 23.42 24.9777 23.42C25.9077 22.4 27.2277 21.14 28.9077 19.7L28.6377 19.28C27.3177 19.94 26.5377 20.39 25.6977 21.05C26.0577 19.52 27.1977 15.98 27.9777 13.43C28.4577 11.9 29.1177 9.5 29.2377 8.75L27.5877 8.03C26.5077 9.05 25.3677 10.1 23.4777 11.72L23.8077 12.29C24.8577 11.54 25.6977 11.06 26.5377 10.46C26.4177 11.27 25.7277 13.31 24.8577 16.19C24.4977 17.36 22.9077 22.07 22.9977 22.43ZM33.568 23.42C35.398 23.42 37.588 21.5 39.208 18.83L38.818 18.5C37.288 20.06 35.518 21.32 34.558 21.62C33.808 20.93 33.688 19.76 33.688 18.44C33.688 15.62 34.978 11.87 36.988 10.01C38.308 10.46 39.628 11.18 40.378 11.63L41.518 9.05C40.678 8.48 39.388 8.03 38.638 8.03C35.578 8.03 30.778 15.89 30.778 19.58C30.778 21.56 32.248 23.42 33.568 23.42ZM49.3754 9.89L50.1554 8.48L50.0054 7.91L47.2754 8.27C47.9354 6.53 48.5354 5.12 48.9254 4.22L48.4454 3.92L44.7854 8.6L42.9554 8.84L42.9854 9.35L44.4854 9.59C43.8254 11.69 42.9854 14.18 42.4454 16.13C42.0854 17.3 40.7954 22.07 40.8854 22.43C41.0054 22.91 42.0254 23.42 42.8954 23.42C43.8254 22.4 45.1154 21.14 46.7954 19.7L46.5254 19.28C45.2054 19.94 44.4254 20.39 43.5854 21.05C43.9454 19.52 44.8454 15.95 45.5654 13.43C45.9554 12.14 46.3454 10.91 46.7354 9.77L49.3754 9.89ZM54.3329 3.74L55.8929 5.54C56.8829 4.7 57.7529 3.74 58.4429 2.72L56.6729 0.829999C55.9229 2 55.1429 2.93 54.3329 3.74ZM49.8629 22.43C49.9829 22.91 50.9729 23.42 51.8429 23.42C52.7729 22.4 54.0929 21.14 55.7729 19.7L55.5029 19.28C54.1829 19.94 53.4029 20.39 52.5629 21.05C52.9229 19.52 54.0629 15.98 54.8429 13.43C55.3229 11.9 55.9829 9.5 56.1029 8.75L54.4529 8.03C53.3729 9.05 52.2329 10.1 50.3429 11.72L50.6729 12.29C51.7229 11.54 52.5629 11.06 53.4029 10.46C53.2829 11.27 52.5929 13.31 51.7229 16.19C51.3629 17.36 49.7729 22.07 49.8629 22.43ZM61.3032 23.45C64.3632 23.45 69.4932 16.1 69.4932 11.9C69.4932 10.16 67.9032 8.03 65.9532 8.03C62.8032 8.03 57.7332 15.47 57.7332 19.19C57.7332 21.5 59.6232 23.45 61.3032 23.45ZM60.6132 17.93C60.6132 15.38 63.0432 10.61 64.8132 9.47C65.6832 9.74 66.6132 11.18 66.6132 13.04C66.6132 16.31 64.0032 21.05 62.3232 22.07C61.4232 21.68 60.6132 20.15 60.6132 17.93ZM71.4402 23.42L73.2102 22.58L74.4702 18.26C76.2402 15.98 79.9902 11.72 81.9402 10.73C80.6802 14.24 78.5502 19.1 78.1302 21.95C78.0402 22.55 79.2102 23.42 79.8102 23.42C80.9802 22.4 81.4902 21.53 84.0402 19.37L83.7402 18.86C82.3902 19.61 81.7002 20.12 80.8902 20.75C81.2502 17.81 84.5502 11.24 84.5502 9.29C84.5502 8.6 84.1902 8.03 83.5302 8.03C81.8802 8.03 78.4902 11.39 75.1902 15.86L75.8802 13.43C76.3302 11.9 76.9302 9.5 77.0502 8.75L75.4002 8.03C74.3202 9.05 73.1802 10.1 71.2902 11.72L71.6202 12.29C72.6702 11.54 73.5102 11.06 74.3502 10.46C74.2302 11.27 73.6302 13.31 73.1502 14.84L70.6602 22.64L71.4402 23.42ZM87.1726 23.42L88.9426 22.58L90.2026 18.26C91.9726 15.98 95.7226 11.72 97.6726 10.73C96.4126 14.24 94.2826 19.1 93.8626 21.95C93.7726 22.55 94.9426 23.42 95.5426 23.42C96.7126 22.4 97.2226 21.53 99.7726 19.37L99.4726 18.86C98.1226 19.61 97.4326 20.12 96.6226 20.75C96.9826 17.81 100.283 11.24 100.283 9.29C100.283 8.6 99.9226 8.03 99.2626 8.03C97.6126 8.03 94.2226 11.39 90.9226 15.86L91.6126 13.43C92.0626 11.9 92.6626 9.5 92.7826 8.75L91.1326 8.03C90.0526 9.05 88.9126 10.1 87.0226 11.72L87.3526 12.29C88.4026 11.54 89.2426 11.06 90.0826 10.46C89.9626 11.27 89.3626 13.31 88.8826 14.84L86.3926 22.64L87.1726 23.42ZM110.225 23.42C111.125 22.37 112.325 20.99 114.365 19.22L114.095 18.77C112.535 19.7 111.845 20.21 111.185 20.75C111.485 19.55 111.785 18.56 112.415 16.55L114.995 8.27L114.635 8.03L112.565 9.26C111.575 8.63 110.285 8.03 109.115 8.03C105.305 8.03 101.825 16.28 101.825 20.63C101.825 21.98 102.215 23.42 103.355 23.42C104.765 23.42 107.855 19.7 110.045 16.73L109.475 18.53C108.935 20.27 108.365 21.65 108.425 22.1C108.545 22.73 109.475 23.42 110.225 23.42ZM104.585 19.19C104.585 15.41 106.415 10.7 107.855 9.5C108.995 9.74 110.735 10.61 111.695 11.42C109.925 16.31 105.605 20.57 104.765 21.02C104.645 20.45 104.585 19.82 104.585 19.19ZM120.808 3.74L122.368 5.54C123.357 4.7 124.228 3.74 124.918 2.72L123.147 0.829999C122.398 2 121.618 2.93 120.808 3.74ZM116.338 22.43C116.458 22.91 117.448 23.42 118.318 23.42C119.248 22.4 120.568 21.14 122.248 19.7L121.978 19.28C120.658 19.94 119.878 20.39 119.038 21.05C119.397 19.52 120.538 15.98 121.318 13.43C121.798 11.9 122.458 9.5 122.578 8.75L120.928 8.03C119.847 9.05 118.708 10.1 116.818 11.72L117.148 12.29C118.198 11.54 119.038 11.06 119.878 10.46C119.758 11.27 119.068 13.31 118.198 16.19C117.838 17.36 116.248 22.07 116.338 22.43ZM125.288 23.42L127.058 22.58L128.288 18.35C130.148 15.02 132.548 11.48 133.268 10.94C133.898 10.97 134.558 11.3 135.068 11.57L136.508 8.66C136.028 8.33 135.098 8.03 134.678 8.03C133.478 8.03 131.258 11.39 129.158 15.38L129.728 13.43C130.178 11.9 130.778 9.5 130.898 8.75L129.248 8.03C128.168 9.05 127.028 10.1 125.138 11.72L125.468 12.29C126.518 11.54 127.358 11.06 128.198 10.46C128.078 11.27 127.478 13.31 126.998 14.84L124.508 22.64L125.288 23.42ZM138.044 23.42C140.144 23.42 142.364 21.5 144.164 18.83L143.774 18.5C142.094 20.06 140.174 21.32 139.124 21.62C138.314 20.93 137.954 19.76 137.954 18.44C137.954 17.9 138.014 17.33 138.134 16.76C142.244 16.07 146.174 13.82 146.174 10.7C146.174 9.47 144.584 8.03 143.564 8.03C139.904 8.03 135.134 15.59 135.134 19.58C135.134 21.53 136.574 23.42 138.044 23.42ZM138.344 15.86C139.004 13.4 140.534 10.79 142.634 9.2C143.084 9.68 143.504 10.46 143.504 11.45C143.504 13.4 140.984 15.23 138.344 15.86ZM15.44 43.05V30.75C15.44 29.31 15.5 27.06 15.65 26.19L15.02 25.68C13.79 26.37 11.99 27.3 10.61 27.84L10.7 28.56C12.2 28.65 12.8 29.28 12.8 30.75V33.81C11.99 33.6 11.09 33.48 10.31 33.48C6.41 33.48 2.9 37.14 2.9 41.7C2.9 45.84 5.54 48.42 8 48.42C9.38 48.42 10.88 47.91 12.98 45.78C13.04 46.62 13.13 47.43 13.19 47.97L13.79 48.33C15.02 47.64 16.61 46.74 17.75 46.14L17.57 45.42C16.1 45.39 15.59 44.67 15.44 43.05ZM5.75 40.62C5.75 37.35 7.34 35.28 9.35 35.28C10.67 35.28 11.63 35.67 12.8 36.48V44.25C11.66 45.3 10.46 46.23 9.2 46.23C7.46 46.23 5.75 44.19 5.75 40.62ZM23.4812 43.08V38.55C23.4812 37.11 23.5412 34.86 23.6912 33.99L23.0612 33.48C21.8312 34.17 20.0312 35.1 18.6512 35.64L18.7412 36.36C20.2412 36.45 20.8412 37.08 20.8412 38.55V44.31C20.8412 46.77 22.2512 48.42 24.6212 48.42C26.2412 48.42 28.0712 46.92 29.3312 45.66C29.3912 46.59 29.4812 47.46 29.5412 48.06L30.1412 48.42C31.3712 47.73 32.9612 46.83 34.1012 46.23L33.9212 45.51C32.4512 45.48 31.9412 44.76 31.7912 43.14V38.55C31.7912 37.11 31.8512 34.86 32.0012 33.99L31.3712 33.48C30.1412 34.17 28.3412 35.1 26.9612 35.64L27.0512 36.36C28.5512 36.45 29.1512 37.08 29.1512 38.55V44.07C28.2212 45 26.9312 45.93 25.7312 45.93C24.3512 45.93 23.4812 45.03 23.4812 43.08ZM54.1688 48.42C56.6888 48.42 59.5988 47.46 61.4288 46.59L62.0588 41.55L61.3688 41.43C59.8688 44.67 57.9788 46.8 55.2188 46.8C50.7188 46.8 46.2488 42.69 46.2488 36.84C46.2488 32.31 49.2188 28.23 52.9088 28.23C56.0588 28.23 58.4288 29.97 60.5288 33.48L61.2188 33.24L60.5588 28.08C58.7288 27.21 56.1488 26.58 53.6288 26.58C47.6588 26.58 42.9488 31.56 42.9488 37.53C42.9488 43.5 47.8688 48.42 54.1688 48.42ZM63.2703 47.19V48H69.6903V47.19C68.4003 46.92 67.8003 46.41 67.8003 43.89V30.75C67.8003 29.31 67.8603 27.06 68.0103 26.19L67.3803 25.68C66.1503 26.37 64.3503 27.3 62.9703 27.84L63.0603 28.56C64.5603 28.65 65.1603 29.28 65.1603 30.75V43.89C65.1603 46.41 64.6203 46.92 63.2703 47.19ZM77.761 47.19C76.411 46.92 75.871 46.41 75.871 43.89V38.55C75.871 37.11 75.931 34.86 76.081 33.99L75.451 33.48C74.221 34.17 72.421 35.1 71.041 35.64L71.131 36.36C72.631 36.45 73.231 37.08 73.231 38.55V43.89C73.231 46.41 72.631 46.92 71.341 47.19V48H77.761V47.19ZM72.361 28.59C72.361 29.67 73.231 30.39 74.131 30.39C75.151 30.39 76.081 29.43 76.081 28.26C76.081 27.33 75.301 26.52 74.341 26.52C73.261 26.52 72.361 27.36 72.361 28.59ZM79.5177 47.19V48H85.9377V47.19C84.6477 46.92 84.0477 46.41 84.0477 43.89V38.31C85.0077 37.23 86.5077 35.97 87.9177 35.97C89.2977 35.97 90.1677 36.87 90.1677 38.82V43.89C90.1677 46.41 89.5677 46.92 88.2777 47.19V48H94.6977V47.19C93.3477 46.92 92.8077 46.41 92.8077 43.89V38.31C93.7677 37.23 95.2677 35.97 96.6777 35.97C98.0577 35.97 98.9277 36.87 98.9277 38.82V43.89C98.9277 46.41 98.3277 46.92 97.0377 47.19V48H103.458V47.19C102.108 46.92 101.568 46.41 101.568 43.89V37.59C101.568 35.13 100.158 33.48 97.7877 33.48C95.9877 33.48 93.9477 35.28 92.7177 36.6C92.3877 34.71 91.0677 33.48 89.0277 33.48C87.1977 33.48 85.0977 35.34 83.8977 36.69C83.8377 35.64 83.7177 34.59 83.6577 33.93L83.0577 33.57C81.8277 34.26 80.2377 35.16 79.0977 35.76L79.2777 36.48C80.7477 36.51 81.2577 37.23 81.4077 38.85V43.89C81.4077 46.41 80.8677 46.92 79.5177 47.19ZM114.912 48.42C115.992 48.42 117.192 47.34 117.972 46.44L117.432 45.81C117.042 46.11 116.592 46.44 116.232 46.44C115.782 46.44 115.512 46.14 115.512 45.54V37.53C115.512 35.07 114.072 33.48 111.822 33.48C109.062 33.48 105.252 36 105.252 37.86C105.252 38.55 105.492 39.06 105.972 39.6L108.312 38.61C108.072 38.13 107.922 37.59 107.922 37.17C107.922 36.06 109.212 35.22 110.322 35.22C112.212 35.22 112.872 36.33 112.872 38.49V40.23L108.642 41.58C106.512 42.27 105.312 43.26 105.312 45.21C105.312 47.1 107.082 48.42 108.912 48.42C110.562 48.42 111.852 47.4 112.872 46.38C112.992 47.76 113.952 48.42 114.912 48.42ZM108.162 44.61C108.162 43.71 108.612 42.96 109.992 42.51L112.872 41.55V45.03C112.182 45.78 111.192 46.44 110.172 46.44C109.032 46.44 108.162 45.72 108.162 44.61ZM123.566 48.42C125.006 48.42 126.566 47.16 127.466 46.11L126.896 45.48C126.146 46.02 125.456 46.5 124.676 46.5C123.566 46.5 123.026 45.69 123.026 44.19V35.61H126.416L127.136 34.47L126.926 33.9H123.056V30.6H122.186L118.286 34.8L118.466 35.61H120.386V44.61C120.386 47.4 121.886 48.42 123.566 48.42Z" fill="black"/>
</svg>
