<svg width="122" height="67" viewBox="0 0 122 67" fill="none" xmlns="http://www.w3.org/2000/svg">
<path d="M9.81738 29H3.69434L3.73145 27.0518H9.81738C11.7594 27.0518 13.4294 26.6188 14.8271 25.7529C16.2373 24.8747 17.3258 23.6624 18.0928 22.1162C18.8597 20.57 19.2432 18.7764 19.2432 16.7354V14.2119C19.2432 12.6533 19.0205 11.2432 18.5752 9.98145C18.1423 8.71973 17.5176 7.64355 16.7012 6.75293C15.8848 5.84993 14.9076 5.15723 13.7695 4.6748C12.6439 4.19238 11.3822 3.95117 9.98438 3.95117H3.58301V1.98438H9.98438C11.6667 1.98438 13.2067 2.27507 14.6045 2.85645C16.0146 3.42546 17.2331 4.25423 18.2598 5.34277C19.2988 6.41895 20.0967 7.71159 20.6533 9.2207C21.2223 10.7298 21.5068 12.4121 21.5068 14.2676V16.7354C21.5068 18.5908 21.2223 20.2731 20.6533 21.7822C20.0967 23.2913 19.2988 24.584 18.2598 25.6602C17.2207 26.7363 15.9899 27.5651 14.5674 28.1465C13.1449 28.7155 11.5615 29 9.81738 29ZM4.71484 1.98438V29H2.43262V1.98438H4.71484ZM29.2812 8.92383V29H27.0732V8.92383H29.2812ZM26.6836 3.11621C26.6836 2.69564 26.8135 2.3431 27.0732 2.05859C27.3454 1.76172 27.7165 1.61328 28.1865 1.61328C28.6566 1.61328 29.0277 1.76172 29.2998 2.05859C29.5843 2.3431 29.7266 2.69564 29.7266 3.11621C29.7266 3.52441 29.5843 3.87695 29.2998 4.17383C29.0277 4.45833 28.6566 4.60059 28.1865 4.60059C27.7165 4.60059 27.3454 4.45833 27.0732 4.17383C26.8135 3.87695 26.6836 3.52441 26.6836 3.11621ZM42.752 27.46C43.6921 27.46 44.5703 27.2868 45.3867 26.9404C46.2155 26.5817 46.8958 26.056 47.4277 25.3633C47.972 24.6582 48.2812 23.7985 48.3555 22.7842H50.4707C50.4089 24.0583 50.0192 25.1963 49.3018 26.1982C48.5967 27.1878 47.6689 27.9671 46.5186 28.5361C45.3805 29.0928 44.125 29.3711 42.752 29.3711C41.3542 29.3711 40.1172 29.1175 39.041 28.6104C37.9772 28.1032 37.0866 27.3981 36.3691 26.4951C35.6517 25.5798 35.1074 24.516 34.7363 23.3037C34.3776 22.0791 34.1982 20.7617 34.1982 19.3516V18.5723C34.1982 17.1621 34.3776 15.8509 34.7363 14.6387C35.1074 13.4141 35.6517 12.3503 36.3691 11.4473C37.0866 10.5319 37.9772 9.82064 39.041 9.31348C40.1048 8.80632 41.3356 8.55273 42.7334 8.55273C44.1683 8.55273 45.4548 8.84342 46.5928 9.4248C47.7432 10.0062 48.6585 10.8288 49.3389 11.8926C50.0316 12.9564 50.4089 14.2181 50.4707 15.6777H48.3555C48.2936 14.6016 48.0091 13.6738 47.502 12.8945C46.9948 12.1152 46.3268 11.5153 45.498 11.0947C44.6693 10.6742 43.7477 10.4639 42.7334 10.4639C41.5954 10.4639 40.6243 10.6865 39.8203 11.1318C39.0163 11.5648 38.3607 12.1647 37.8535 12.9316C37.3587 13.6862 36.9938 14.5521 36.7588 15.5293C36.5238 16.4941 36.4062 17.5085 36.4062 18.5723V19.3516C36.4062 20.4277 36.5176 21.4544 36.7402 22.4316C36.9753 23.3965 37.3402 24.2562 37.835 25.0107C38.3421 25.7653 38.9977 26.3652 39.8018 26.8105C40.6182 27.2435 41.6016 27.46 42.752 27.46ZM53.7178 19.2773V18.665C53.7178 17.2054 53.9281 15.8571 54.3486 14.6201C54.7692 13.3831 55.3691 12.3132 56.1484 11.4102C56.9401 10.5072 57.8864 9.80827 58.9873 9.31348C60.0882 8.80632 61.3128 8.55273 62.6611 8.55273C64.0218 8.55273 65.2526 8.80632 66.3535 9.31348C67.4544 9.80827 68.4007 10.5072 69.1924 11.4102C69.984 12.3132 70.5902 13.3831 71.0107 14.6201C71.4313 15.8571 71.6416 17.2054 71.6416 18.665V19.2773C71.6416 20.737 71.4313 22.0853 71.0107 23.3223C70.5902 24.5469 69.984 25.6107 69.1924 26.5137C68.4131 27.4167 67.473 28.1217 66.3721 28.6289C65.2712 29.1237 64.0465 29.3711 62.6982 29.3711C61.3376 29.3711 60.1068 29.1237 59.0059 28.6289C57.9049 28.1217 56.9587 27.4167 56.167 26.5137C55.3753 25.6107 54.7692 24.5469 54.3486 23.3223C53.9281 22.0853 53.7178 20.737 53.7178 19.2773ZM55.9258 18.665V19.2773C55.9258 20.3783 56.0742 21.4235 56.3711 22.4131C56.668 23.3903 57.1009 24.2624 57.6699 25.0293C58.2389 25.7839 58.944 26.3776 59.7852 26.8105C60.6263 27.2435 61.5973 27.46 62.6982 27.46C63.7868 27.46 64.7454 27.2435 65.5742 26.8105C66.4154 26.3776 67.1204 25.7839 67.6895 25.0293C68.2585 24.2624 68.6852 23.3903 68.9697 22.4131C69.2666 21.4235 69.415 20.3783 69.415 19.2773V18.665C69.415 17.5765 69.2666 16.5436 68.9697 15.5664C68.6852 14.5892 68.2523 13.7171 67.6709 12.9502C67.1019 12.1833 66.3968 11.5771 65.5557 11.1318C64.7145 10.6865 63.7497 10.4639 62.6611 10.4639C61.5726 10.4639 60.6077 10.6865 59.7666 11.1318C58.9378 11.5771 58.2327 12.1833 57.6514 12.9502C57.0824 13.7171 56.6494 14.5892 56.3525 15.5664C56.068 16.5436 55.9258 17.5765 55.9258 18.665ZM98.5645 25.1035V0.5H100.791V29H98.7129L98.5645 25.1035ZM84.6299 19.166V18.7764C84.6299 17.2178 84.8092 15.8138 85.168 14.5645C85.5267 13.3027 86.04 12.2266 86.708 11.3359C87.3883 10.4329 88.2048 9.74642 89.1572 9.27637C90.1097 8.79395 91.1859 8.55273 92.3857 8.55273C93.5609 8.55273 94.5999 8.74447 95.5029 9.12793C96.4059 9.51139 97.179 10.0618 97.8223 10.7793C98.4779 11.4967 99.0036 12.3503 99.3994 13.3398C99.8076 14.3294 100.104 15.4303 100.29 16.6426V21.5967C100.142 22.7347 99.8695 23.7799 99.4736 24.7324C99.0778 25.6725 98.5521 26.4951 97.8965 27.2002C97.2409 27.8929 96.4492 28.431 95.5215 28.8145C94.6061 29.1855 93.5485 29.3711 92.3486 29.3711C91.1611 29.3711 90.0911 29.1237 89.1387 28.6289C88.1862 28.1341 87.376 27.4352 86.708 26.5322C86.04 25.6169 85.5267 24.5345 85.168 23.2852C84.8092 22.0358 84.6299 20.6628 84.6299 19.166ZM86.8564 18.7764V19.166C86.8564 20.3411 86.974 21.4297 87.209 22.4316C87.444 23.4336 87.8027 24.3057 88.2852 25.0479C88.7676 25.79 89.3799 26.3714 90.1221 26.792C90.8643 27.2126 91.7425 27.4229 92.7568 27.4229C94.0309 27.4229 95.1009 27.1816 95.9668 26.6992C96.8327 26.2044 97.5254 25.555 98.0449 24.751C98.5645 23.9346 98.9417 23.0439 99.1768 22.0791V16.3086C99.0283 15.653 98.8118 14.985 98.5273 14.3047C98.2428 13.6243 97.8532 12.9997 97.3584 12.4307C96.876 11.8493 96.2575 11.3854 95.5029 11.0391C94.7607 10.6803 93.8577 10.501 92.7939 10.501C91.7673 10.501 90.8828 10.7113 90.1406 11.1318C89.3984 11.5524 88.7799 12.14 88.2852 12.8945C87.8027 13.6367 87.444 14.5088 87.209 15.5107C86.974 16.5127 86.8564 17.6012 86.8564 18.7764ZM119.494 24.3613V8.92383H121.721V29H119.587L119.494 24.3613ZM119.902 20.6504L121.053 20.6133C121.053 21.875 120.904 23.0378 120.607 24.1016C120.311 25.1654 119.847 26.0931 119.216 26.8848C118.585 27.6764 117.769 28.2887 116.767 28.7217C115.765 29.1546 114.559 29.3711 113.148 29.3711C112.171 29.3711 111.274 29.235 110.458 28.9629C109.654 28.6784 108.961 28.2331 108.38 27.627C107.799 27.0208 107.347 26.2354 107.025 25.2705C106.716 24.3057 106.562 23.1367 106.562 21.7637V8.92383H108.77V21.8008C108.77 22.877 108.887 23.7738 109.122 24.4912C109.369 25.2087 109.703 25.7839 110.124 26.2168C110.557 26.6497 111.052 26.959 111.608 27.1445C112.165 27.3301 112.765 27.4229 113.408 27.4229C115.041 27.4229 116.327 27.1074 117.268 26.4766C118.22 25.8457 118.894 25.0169 119.29 23.9902C119.698 22.9512 119.902 21.8379 119.902 20.6504ZM14.4629 56.7642H20.0044C19.9282 58.8462 19.5093 60.6045 18.7476 62.0391C17.9858 63.4609 16.9004 64.54 15.4912 65.2764C14.0947 66.0127 12.4062 66.3809 10.4258 66.3809C8.88965 66.3809 7.5249 66.127 6.33154 65.6191C5.13818 65.0986 4.12256 64.3369 3.28467 63.334C2.44678 62.3311 1.81201 61.0933 1.38037 59.6206C0.961426 58.1353 0.751953 56.4277 0.751953 54.498V49.7944C0.751953 47.8647 0.974121 46.1572 1.41846 44.6719C1.87549 43.1865 2.52295 41.9424 3.36084 40.9395C4.21143 39.9238 5.2334 39.1621 6.42676 38.6543C7.63281 38.1338 8.99121 37.8735 10.502 37.8735C12.5205 37.8735 14.209 38.2544 15.5674 39.0161C16.9258 39.7778 17.9731 40.8887 18.7095 42.3486C19.4585 43.7959 19.9092 45.5669 20.0615 47.6616H14.4819C14.4565 46.3413 14.3105 45.3066 14.0439 44.5576C13.79 43.7959 13.3838 43.2627 12.8252 42.958C12.2666 42.6406 11.4922 42.4819 10.502 42.4819C9.76562 42.4819 9.13086 42.6152 8.59766 42.8818C8.06445 43.1357 7.62646 43.5483 7.28369 44.1196C6.94092 44.6909 6.68701 45.4399 6.52197 46.3667C6.36963 47.2935 6.29346 48.4233 6.29346 49.7563V54.498C6.29346 55.8057 6.36328 56.9229 6.50293 57.8496C6.64258 58.7637 6.86475 59.5127 7.16943 60.0967C7.47412 60.6807 7.88672 61.106 8.40723 61.3726C8.94043 61.6392 9.61328 61.7725 10.4258 61.7725C11.3652 61.7725 12.1206 61.6328 12.6919 61.3535C13.2759 61.0742 13.7075 60.5728 13.9868 59.8491C14.2661 59.1255 14.4248 58.0972 14.4629 56.7642ZM38.876 61.3916V66H27.355V61.3916H38.876ZM29.0688 38.2734V66H23.4893V38.2734H29.0688ZM47.9404 38.2734V66H42.3989V38.2734H47.9404ZM54.6816 38.2734H59.5757L65.2314 57.2402L70.8682 38.2734H75.1909L67.3071 66H63.1367L54.6816 38.2734ZM52.7012 38.2734H57.3667L58.0903 56.5547V66H52.7012V38.2734ZM73.0581 38.2734H77.7427V66H72.3726V56.5547L73.0581 38.2734ZM92.6724 43.2246L86.7119 66H80.8276L89.4922 38.2734H93.1675L92.6724 43.2246ZM97.376 66L91.3774 43.2246L90.8252 38.2734H94.5576L103.298 66H97.376ZM97.5854 55.6597V60.2871H85.0742V55.6597H97.5854ZM114.705 38.2734V66H109.164V38.2734H114.705ZM121.599 38.2734V42.9009H102.403V38.2734H121.599Z" fill="black"/>
</svg>
