<svg width="122" height="56" viewBox="0 0 122 56" fill="none" xmlns="http://www.w3.org/2000/svg">
<path d="M5.83203 18H1.96484L1.98828 16.7695H5.83203C7.05859 16.7695 8.11328 16.4961 8.99609 15.9492C9.88672 15.3945 10.5742 14.6289 11.0586 13.6523C11.543 12.6758 11.7852 11.543 11.7852 10.2539V8.66016C11.7852 7.67578 11.6445 6.78516 11.3633 5.98828C11.0898 5.19141 10.6953 4.51172 10.1797 3.94922C9.66406 3.37891 9.04688 2.94141 8.32812 2.63672C7.61719 2.33203 6.82031 2.17969 5.9375 2.17969H1.89453V0.9375H5.9375C7 0.9375 7.97266 1.12109 8.85547 1.48828C9.74609 1.84766 10.5156 2.37109 11.1641 3.05859C11.8203 3.73828 12.3242 4.55469 12.6758 5.50781C13.0352 6.46094 13.2148 7.52344 13.2148 8.69531V10.2539C13.2148 11.4258 13.0352 12.4883 12.6758 13.4414C12.3242 14.3945 11.8203 15.2109 11.1641 15.8906C10.5078 16.5703 9.73047 17.0938 8.83203 17.4609C7.93359 17.8203 6.93359 18 5.83203 18ZM2.60938 0.9375V18H1.16797V0.9375H2.60938ZM18.125 5.32031V18H16.7305V5.32031H18.125ZM16.4844 1.65234C16.4844 1.38672 16.5664 1.16406 16.7305 0.984375C16.9023 0.796875 17.1367 0.703125 17.4336 0.703125C17.7305 0.703125 17.9648 0.796875 18.1367 0.984375C18.3164 1.16406 18.4062 1.38672 18.4062 1.65234C18.4062 1.91016 18.3164 2.13281 18.1367 2.32031C17.9648 2.5 17.7305 2.58984 17.4336 2.58984C17.1367 2.58984 16.9023 2.5 16.7305 2.32031C16.5664 2.13281 16.4844 1.91016 16.4844 1.65234ZM26.6328 17.0273C27.2266 17.0273 27.7812 16.918 28.2969 16.6992C28.8203 16.4727 29.25 16.1406 29.5859 15.7031C29.9297 15.2578 30.125 14.7148 30.1719 14.0742H31.5078C31.4688 14.8789 31.2227 15.5977 30.7695 16.2305C30.3242 16.8555 29.7383 17.3477 29.0117 17.707C28.293 18.0586 27.5 18.2344 26.6328 18.2344C25.75 18.2344 24.9688 18.0742 24.2891 17.7539C23.6172 17.4336 23.0547 16.9883 22.6016 16.418C22.1484 15.8398 21.8047 15.168 21.5703 14.4023C21.3438 13.6289 21.2305 12.7969 21.2305 11.9062V11.4141C21.2305 10.5234 21.3438 9.69531 21.5703 8.92969C21.8047 8.15625 22.1484 7.48438 22.6016 6.91406C23.0547 6.33594 23.6172 5.88672 24.2891 5.56641C24.9609 5.24609 25.7383 5.08594 26.6211 5.08594C27.5273 5.08594 28.3398 5.26953 29.0586 5.63672C29.7852 6.00391 30.3633 6.52344 30.793 7.19531C31.2305 7.86719 31.4688 8.66406 31.5078 9.58594H30.1719C30.1328 8.90625 29.9531 8.32031 29.6328 7.82812C29.3125 7.33594 28.8906 6.95703 28.3672 6.69141C27.8438 6.42578 27.2617 6.29297 26.6211 6.29297C25.9023 6.29297 25.2891 6.43359 24.7812 6.71484C24.2734 6.98828 23.8594 7.36719 23.5391 7.85156C23.2266 8.32812 22.9961 8.875 22.8477 9.49219C22.6992 10.1016 22.625 10.7422 22.625 11.4141V11.9062C22.625 12.5859 22.6953 13.2344 22.8359 13.8516C22.9844 14.4609 23.2148 15.0039 23.5273 15.4805C23.8477 15.957 24.2617 16.3359 24.7695 16.6172C25.2852 16.8906 25.9062 17.0273 26.6328 17.0273ZM33.5586 11.8594V11.4727C33.5586 10.5508 33.6914 9.69922 33.957 8.91797C34.2227 8.13672 34.6016 7.46094 35.0938 6.89062C35.5938 6.32031 36.1914 5.87891 36.8867 5.56641C37.582 5.24609 38.3555 5.08594 39.207 5.08594C40.0664 5.08594 40.8438 5.24609 41.5391 5.56641C42.2344 5.87891 42.832 6.32031 43.332 6.89062C43.832 7.46094 44.2148 8.13672 44.4805 8.91797C44.7461 9.69922 44.8789 10.5508 44.8789 11.4727V11.8594C44.8789 12.7812 44.7461 13.6328 44.4805 14.4141C44.2148 15.1875 43.832 15.8594 43.332 16.4297C42.8398 17 42.2461 17.4453 41.5508 17.7656C40.8555 18.0781 40.082 18.2344 39.2305 18.2344C38.3711 18.2344 37.5938 18.0781 36.8984 17.7656C36.2031 17.4453 35.6055 17 35.1055 16.4297C34.6055 15.8594 34.2227 15.1875 33.957 14.4141C33.6914 13.6328 33.5586 12.7812 33.5586 11.8594ZM34.9531 11.4727V11.8594C34.9531 12.5547 35.0469 13.2148 35.2344 13.8398C35.4219 14.457 35.6953 15.0078 36.0547 15.4922C36.4141 15.9688 36.8594 16.3438 37.3906 16.6172C37.9219 16.8906 38.5352 17.0273 39.2305 17.0273C39.918 17.0273 40.5234 16.8906 41.0469 16.6172C41.5781 16.3438 42.0234 15.9688 42.3828 15.4922C42.7422 15.0078 43.0117 14.457 43.1914 13.8398C43.3789 13.2148 43.4727 12.5547 43.4727 11.8594V11.4727C43.4727 10.7852 43.3789 10.1328 43.1914 9.51562C43.0117 8.89844 42.7383 8.34766 42.3711 7.86328C42.0117 7.37891 41.5664 6.99609 41.0352 6.71484C40.5039 6.43359 39.8945 6.29297 39.207 6.29297C38.5195 6.29297 37.9102 6.43359 37.3789 6.71484C36.8555 6.99609 36.4102 7.37891 36.043 7.86328C35.6836 8.34766 35.4102 8.89844 35.2227 9.51562C35.043 10.1328 34.9531 10.7852 34.9531 11.4727ZM61.8828 15.5391V0H63.2891V18H61.9766L61.8828 15.5391ZM53.082 11.7891V11.543C53.082 10.5586 53.1953 9.67188 53.4219 8.88281C53.6484 8.08594 53.9727 7.40625 54.3945 6.84375C54.8242 6.27344 55.3398 5.83984 55.9414 5.54297C56.543 5.23828 57.2227 5.08594 57.9805 5.08594C58.7227 5.08594 59.3789 5.20703 59.9492 5.44922C60.5195 5.69141 61.0078 6.03906 61.4141 6.49219C61.8281 6.94531 62.1602 7.48438 62.4102 8.10938C62.668 8.73438 62.8555 9.42969 62.9727 10.1953V13.3242C62.8789 14.043 62.707 14.7031 62.457 15.3047C62.207 15.8984 61.875 16.418 61.4609 16.8633C61.0469 17.3008 60.5469 17.6406 59.9609 17.8828C59.3828 18.1172 58.7148 18.2344 57.957 18.2344C57.207 18.2344 56.5312 18.0781 55.9297 17.7656C55.3281 17.4531 54.8164 17.0117 54.3945 16.4414C53.9727 15.8633 53.6484 15.1797 53.4219 14.3906C53.1953 13.6016 53.082 12.7344 53.082 11.7891ZM54.4883 11.543V11.7891C54.4883 12.5312 54.5625 13.2188 54.7109 13.8516C54.8594 14.4844 55.0859 15.0352 55.3906 15.5039C55.6953 15.9727 56.082 16.3398 56.5508 16.6055C57.0195 16.8711 57.5742 17.0039 58.2148 17.0039C59.0195 17.0039 59.6953 16.8516 60.2422 16.5469C60.7891 16.2344 61.2266 15.8242 61.5547 15.3164C61.8828 14.8008 62.1211 14.2383 62.2695 13.6289V9.98438C62.1758 9.57031 62.0391 9.14844 61.8594 8.71875C61.6797 8.28906 61.4336 7.89453 61.1211 7.53516C60.8164 7.16797 60.4258 6.875 59.9492 6.65625C59.4805 6.42969 58.9102 6.31641 58.2383 6.31641C57.5898 6.31641 57.0312 6.44922 56.5625 6.71484C56.0938 6.98047 55.7031 7.35156 55.3906 7.82812C55.0859 8.29688 54.8594 8.84766 54.7109 9.48047C54.5625 10.1133 54.4883 10.8008 54.4883 11.543ZM75.1016 15.0703V5.32031H76.5078V18H75.1602L75.1016 15.0703ZM75.3594 12.7266L76.0859 12.7031C76.0859 13.5 75.9922 14.2344 75.8047 14.9062C75.6172 15.5781 75.3242 16.1641 74.9258 16.6641C74.5273 17.1641 74.0117 17.5508 73.3789 17.8242C72.7461 18.0977 71.9844 18.2344 71.0938 18.2344C70.4766 18.2344 69.9102 18.1484 69.3945 17.9766C68.8867 17.7969 68.4492 17.5156 68.082 17.1328C67.7148 16.75 67.4297 16.2539 67.2266 15.6445C67.0312 15.0352 66.9336 14.2969 66.9336 13.4297V5.32031H68.3281V13.4531C68.3281 14.1328 68.4023 14.6992 68.5508 15.1523C68.707 15.6055 68.918 15.9688 69.1836 16.2422C69.457 16.5156 69.7695 16.7109 70.1211 16.8281C70.4727 16.9453 70.8516 17.0039 71.2578 17.0039C72.2891 17.0039 73.1016 16.8047 73.6953 16.4062C74.2969 16.0078 74.7227 15.4844 74.9727 14.8359C75.2305 14.1797 75.3594 13.4766 75.3594 12.7266ZM14.4629 45.7642H20.0044C19.9282 47.8462 19.5093 49.6045 18.7476 51.0391C17.9858 52.4609 16.9004 53.54 15.4912 54.2764C14.0947 55.0127 12.4062 55.3809 10.4258 55.3809C8.88965 55.3809 7.5249 55.127 6.33154 54.6191C5.13818 54.0986 4.12256 53.3369 3.28467 52.334C2.44678 51.3311 1.81201 50.0933 1.38037 48.6206C0.961426 47.1353 0.751953 45.4277 0.751953 43.498V38.7944C0.751953 36.8647 0.974121 35.1572 1.41846 33.6719C1.87549 32.1865 2.52295 30.9424 3.36084 29.9395C4.21143 28.9238 5.2334 28.1621 6.42676 27.6543C7.63281 27.1338 8.99121 26.8735 10.502 26.8735C12.5205 26.8735 14.209 27.2544 15.5674 28.0161C16.9258 28.7778 17.9731 29.8887 18.7095 31.3486C19.4585 32.7959 19.9092 34.5669 20.0615 36.6616H14.4819C14.4565 35.3413 14.3105 34.3066 14.0439 33.5576C13.79 32.7959 13.3838 32.2627 12.8252 31.958C12.2666 31.6406 11.4922 31.4819 10.502 31.4819C9.76562 31.4819 9.13086 31.6152 8.59766 31.8818C8.06445 32.1357 7.62646 32.5483 7.28369 33.1196C6.94092 33.6909 6.68701 34.4399 6.52197 35.3667C6.36963 36.2935 6.29346 37.4233 6.29346 38.7563V43.498C6.29346 44.8057 6.36328 45.9229 6.50293 46.8496C6.64258 47.7637 6.86475 48.5127 7.16943 49.0967C7.47412 49.6807 7.88672 50.106 8.40723 50.3726C8.94043 50.6392 9.61328 50.7725 10.4258 50.7725C11.3652 50.7725 12.1206 50.6328 12.6919 50.3535C13.2759 50.0742 13.7075 49.5728 13.9868 48.8491C14.2661 48.1255 14.4248 47.0972 14.4629 45.7642ZM38.876 50.3916V55H27.355V50.3916H38.876ZM29.0688 27.2734V55H23.4893V27.2734H29.0688ZM47.9404 27.2734V55H42.3989V27.2734H47.9404ZM54.6816 27.2734H59.5757L65.2314 46.2402L70.8682 27.2734H75.1909L67.3071 55H63.1367L54.6816 27.2734ZM52.7012 27.2734H57.3667L58.0903 45.5547V55H52.7012V27.2734ZM73.0581 27.2734H77.7427V55H72.3726V45.5547L73.0581 27.2734ZM92.6724 32.2246L86.7119 55H80.8276L89.4922 27.2734H93.1675L92.6724 32.2246ZM97.376 55L91.3774 32.2246L90.8252 27.2734H94.5576L103.298 55H97.376ZM97.5854 44.6597V49.2871H85.0742V44.6597H97.5854ZM114.705 27.2734V55H109.164V27.2734H114.705ZM121.599 27.2734V31.9009H102.403V27.2734H121.599Z" fill="black"/>
</svg>
